<svg xmlns="http://www.w3.org/2000/svg" width="52.297" height="37" viewBox="0 0 52.297 37"><defs><style>.a{fill:#fff;}</style></defs><path class="a" d="M50.711,45.634a10.426,10.426,0,0,1-4.1,1.793,23.477,23.477,0,0,1-4.623.445,13.521,13.521,0,0,1-4.428-.706,9.019,9.019,0,0,1-3.587-2.291,11.008,11.008,0,0,1-2.413-4.122,19.055,19.055,0,0,1-.881-6.222,4,4,0,0,1,.037-.585c.024-.163.148-.242.378-.242H51.23c.713,0,1.066-.5,1.066-1.483a15.133,15.133,0,0,0-.945-5.414,12.763,12.763,0,0,0-2.672-4.293,12.207,12.207,0,0,0-4.138-2.828,13.744,13.744,0,0,0-5.381-1.015A15.44,15.44,0,0,0,32.715,20,15.254,15.254,0,0,0,27.7,23.6a16.56,16.56,0,0,0-3.259,5.343,18.232,18.232,0,0,0-.589,1.888,16.526,16.526,0,0,0-2.875-3.283c-.145-.136-.3-.279-.47-.428a37.591,37.591,0,0,0-4.248-3.291,26.543,26.543,0,0,0-2.485-1.451l-1.2-.553c-.4-.148-.768-.289-1.116-.417l-.971-.268a5.319,5.319,0,0,0-.763-.151c-.425-.067-.671-.11-.671-.11l.678.056a5.379,5.379,0,0,1,.779.09l1,.194,1.16.336c.4.146.827.3,1.27.465a27.844,27.844,0,0,1,2.64,1.275,38.952,38.952,0,0,1,4.6,3.015c.242.184.461.355.663.517a4.279,4.279,0,0,0-.1-.6,11.915,11.915,0,0,0-.385-1.563,13.827,13.827,0,0,0-.731-1.8,13.31,13.31,0,0,0-2.656-3.614,12.334,12.334,0,0,0-1.908-1.536,15.265,15.265,0,0,0-2.221-1.21,16.882,16.882,0,0,0-2.445-.8,14.1,14.1,0,0,0-2.551-.319,12.623,12.623,0,0,0-2.484.177,13.486,13.486,0,0,0-2.232.617,13.771,13.771,0,0,0-1.827.941A8.787,8.787,0,0,0,1,18.179,7.576,7.576,0,0,0,.247,19,3.825,3.825,0,0,0,0,19.323l.292.316c.185.176.451.5.763.775.292.289.65.643,1.057,1.05s.806.8,1.229,1.186.88.839,1.341,1.21a18.259,18.259,0,0,0,1.446,1.131,16.682,16.682,0,0,0,3.277,1.835,17.829,17.829,0,0,0,1.831.669,19.109,19.109,0,0,0,1.925.47c.656.111,1.313.212,1.974.258s1.308.082,1.944.069,1.245-.036,1.807-.085c.387-.025.752-.077,1.094-.127a16.151,16.151,0,0,1,3.554,4.207,19.422,19.422,0,0,0-.271,3.241,21.333,21.333,0,0,0,1.017,6.708,14,14,0,0,0,8.326,8.877,19.521,19.521,0,0,0,7.379,1.275,18.582,18.582,0,0,0,6.964-1.138,13.086,13.086,0,0,0,5.1-4.068q.485-.518-.172-1.277C51.47,45.383,51.079,45.289,50.711,45.634ZM30.956,29.325a14.673,14.673,0,0,1,.725-3.084,8.385,8.385,0,0,1,1.446-2.586,6.942,6.942,0,0,1,2.294-1.794,7.383,7.383,0,0,1,3.291-.67,5.848,5.848,0,0,1,2.742.637,6.341,6.341,0,0,1,2.068,1.707,8.156,8.156,0,0,1,1.313,2.431A8.764,8.764,0,0,1,45.3,28.81c0,.342,0,.66-.017.947a2.957,2.957,0,0,1-.121.759,1,1,0,0,1-.361.517,1.3,1.3,0,0,1-.775.19H31.164c-.183,0-.289-.179-.313-.534A6.185,6.185,0,0,1,30.956,29.325Z" transform="translate(0 -15.389)"/></svg>