<svg xmlns="http://www.w3.org/2000/svg" width="22.443" height="22.443" viewBox="0 0 22.443 22.443"><defs><style>.a{fill:#fff;}</style></defs><path class="a" d="M15.43,0H7.013A7.014,7.014,0,0,0,0,7.013V15.43a7.014,7.014,0,0,0,7.013,7.013H15.43a7.014,7.014,0,0,0,7.013-7.013V7.013A7.014,7.014,0,0,0,15.43,0Zm4.909,15.43a4.915,4.915,0,0,1-4.909,4.909H7.013A4.915,4.915,0,0,1,2.1,15.43V7.013A4.915,4.915,0,0,1,7.013,2.1H15.43a4.915,4.915,0,0,1,4.909,4.909Z"/><g transform="translate(5.611 5.611)"><path class="a" d="M133.611,128a5.611,5.611,0,1,0,5.611,5.611A5.611,5.611,0,0,0,133.611,128Zm0,9.117a3.507,3.507,0,1,1,3.507-3.507A3.512,3.512,0,0,1,133.611,137.117Z" transform="translate(-128 -128)"/></g><g transform="translate(16.505 4.442)"><circle class="a" cx="0.748" cy="0.748" r="0.748"/></g></svg>