<svg xmlns="http://www.w3.org/2000/svg" width="22" height="17.87" viewBox="0 0 22 17.87"><defs><style>.a{fill:#fff;}</style></defs><g transform="translate(-0.001 -57.441)"><g transform="translate(0.001 57.441)"><path class="a" d="M22,59.555a9.013,9.013,0,0,1-2.591.711,4.532,4.532,0,0,0,1.984-2.5,9.1,9.1,0,0,1-2.868,1.1,4.517,4.517,0,0,0-7.69,4.115,12.813,12.813,0,0,1-9.3-4.715,4.518,4.518,0,0,0,1.4,6.024,4.513,4.513,0,0,1-2.044-.566v.056a4.518,4.518,0,0,0,3.62,4.425,4.571,4.571,0,0,1-1.189.158,4.332,4.332,0,0,1-.85-.084,4.515,4.515,0,0,0,4.215,3.134,9.055,9.055,0,0,1-5.6,1.929A9.59,9.59,0,0,1,0,73.281a12.757,12.757,0,0,0,6.918,2.031,12.752,12.752,0,0,0,12.84-12.84l-.015-.584A9.012,9.012,0,0,0,22,59.555Z" transform="translate(-0.001 -57.441)"/></g></g></svg>